# File created by Blade
# Date/Time:  Fri Jan 16 14:33:41 2015
# Frame Rate: 120.000 fps
#------------------------------------------------------
:FULLY-SPECIFIED
:DEGREES
3508
root 19.254366 35.605770 -25.188662 -170.745030 -5.205316 -179.072199
Spine -16.547307 -2.131287 -0.596457
Head 10.263435 -3.325410 3.036910
LeftShoulder -13.027659 -28.692256 21.626770
LeftArm 4.394851 2.170684 -5.290212
LeftForeArm 10.774680 -0.000000 -1.140797
LeftHand -4.583667 -0.000000 -11.394507
LeftHandThumb1 -26.253704 0.000000 33.147579
RightShoulder -10.980072 -9.616060 -9.100289
RightArm 4.124067 48.936465 15.397867
RightForeArm -32.447604 -0.000000 9.256823
RightHand -8.409953 -0.000000 1.185516
RightHandThumb1 -24.326973 -0.000000 -32.862282
LeftUpLeg 0.412815 7.076111 1.218197
LeftLeg -6.292915 -0.000000 0.000000
LeftFoot -20.709980 25.384114 -15.610371
LeftToeBase 24.682422 -0.000000 -0.000000
RightUpLeg 0.263394 -13.019469 3.629997
RightLeg -4.544367 -0.000000 0.000000
RightFoot -22.059792 -25.192956 17.657077
RightToeBase 21.992145 -0.000000 -0.000000
3509
root 19.254463 35.606234 -25.193392 -170.872796 -5.230711 -179.079303
Spine -16.343105 -2.105350 -0.621498
Head 10.170507 -3.421641 3.069350
LeftShoulder -12.927215 -28.611610 21.578417
LeftArm 4.328717 2.159898 -5.291790
LeftForeArm 10.769121 -0.000000 -1.197113
LeftHand -4.554448 -0.000000 -11.402452
LeftHandThumb1 -26.253704 0.000000 33.147579
RightShoulder -10.948586 -9.733281 -9.086749
RightArm 4.008004 48.896118 15.346202
RightForeArm -32.418915 -0.000000 9.213446
RightHand -8.389430 -0.000000 1.169876
RightHandThumb1 -24.326973 -0.000000 -32.862282
LeftUpLeg 0.523643 7.063849 1.232712
LeftLeg -6.248667 -0.000000 0.000000
LeftFoot -20.721176 25.358010 -15.599000
LeftToeBase 24.709615 -0.000000 -0.000000
RightUpLeg 0.386233 -13.035122 3.598035
RightLeg -4.511636 -0.000000 0.000000
RightFoot -22.098475 -25.205652 17.684006
RightToeBase 21.973436 -0.000000 -0.000000
3510
root 19.254566 35.606259 -25.197131 -171.023558 -5.248634 -179.086881
Spine -16.096177 -2.101783 -0.640052
Head 10.051676 -3.472514 3.097372
LeftShoulder -12.868283 -28.546523 21.547536
LeftArm 4.275163 2.176664 -5.285910
LeftForeArm 10.742939 -0.000000 -1.274192
LeftHand -4.543113 -0.000000 -11.424616
LeftHandThumb1 -26.253704 0.000000 33.147579
RightShoulder -10.920264 -9.835764 -9.072012
RightArm 3.995887 48.916917 15.358463
RightForeArm -32.462729 -0.000000 9.112915
RightHand -8.348141 -0.000000 1.023706
RightHandThumb1 -24.326973 -0.000000 -32.862282
LeftUpLeg 0.653537 7.043890 1.248130
LeftLeg -6.198261 -0.000000 0.000000
LeftFoot -20.747557 25.347659 -15.600675
LeftToeBase 24.717424 -0.000000 -0.000000
RightUpLeg 0.524705 -13.036259 3.559967
RightLeg -4.465721 -0.000000 0.000000
RightFoot -22.135832 -25.236089 17.688552
RightToeBase 21.934449 -0.000000 -0.000000
3511
root 19.255628 35.605685 -25.201220 -171.183136 -5.261502 -179.097075
Spine -15.834382 -2.080443 -0.672091
Head 9.923845 -3.551427 3.127839
LeftShoulder -12.815821 -28.508859 21.537234
LeftArm 4.242478 2.193315 -5.298398
LeftForeArm 10.755790 -0.000000 -1.364879
LeftHand -4.561794 0.000000 -11.465151
LeftHandThumb1 -26.253704 0.000000 33.147579
RightShoulder -10.945433 -9.939228 -9.045641
RightArm 4.094426 48.949512 15.432565
RightForeArm -32.464009 -0.000000 8.935633
RightHand -8.319636 -0.000000 0.867794
RightHandThumb1 -24.326973 -0.000000 -32.862282
LeftUpLeg 0.794157 7.042124 1.259337
LeftLeg -6.151689 -0.000000 0.000000
LeftFoot -20.776801 25.338436 -15.608419
LeftToeBase 24.661937 -0.000000 -0.000000
RightUpLeg 0.671808 -13.050501 3.517124
RightLeg -4.418159 -0.000000 0.000000
RightFoot -22.165535 -25.250739 17.661640
RightToeBase 21.913292 -0.000000 -0.000000
3512
root 19.255360 35.604594 -25.203037 -171.337385 -5.273883 -179.107195
Spine -15.574709 -2.083857 -0.689657
Head 9.799080 -3.598712 3.143062
LeftShoulder -12.791042 -28.491397 21.537180
LeftArm 4.204299 2.210924 -5.302759
LeftForeArm 10.780954 -0.000000 -1.446070
LeftHand -4.592871 -0.000000 -11.552500
LeftHandThumb1 -26.253704 0.000000 33.147579
RightShoulder -10.935950 -10.056242 -9.017695
RightArm 4.177520 49.060437 15.472382
RightForeArm -32.436768 -0.000000 8.763350
RightHand -8.331925 -0.000000 0.938897
RightHandThumb1 -24.326973 -0.000000 -32.862282
LeftUpLeg 0.920776 7.018650 1.270712
LeftLeg -6.090401 -0.000000 0.000000
LeftFoot -20.801969 25.350757 -15.583791
LeftToeBase 24.697002 -0.000000 -0.000000
RightUpLeg 0.806924 -13.042954 3.473808
RightLeg -4.365708 -0.000000 0.000000
RightFoot -22.205814 -25.295621 17.620560
RightToeBase 21.983089 -0.000000 -0.000000
3513
root 19.255557 35.603194 -25.205655 -171.485980 -5.270725 -179.110918
Spine -15.333517 -2.026820 -0.715398
Head 9.698187 -3.707454 3.151220
LeftShoulder -12.723580 -28.460411 21.504659
LeftArm 4.191923 2.179856 -5.302324
LeftForeArm 10.775626 0.000000 -1.527867
LeftHand -4.614291 -0.000000 -11.637400
LeftHandThumb1 -26.253704 0.000000 33.147579
RightShoulder -10.940721 -10.105808 -9.005580
RightArm 4.173605 49.118284 15.447954
RightForeArm -32.346861 -0.000000 8.570723
RightHand -8.268673 -0.000000 0.997491
RightHandThumb1 -24.326973 -0.000000 -32.862282
LeftUpLeg 1.046464 7.045699 1.283843
LeftLeg -6.036642 -0.000000 0.000000
LeftFoot -20.826404 25.354786 -15.546757
LeftToeBase 24.344773 -0.000000 -0.000000
RightUpLeg 0.944606 -13.030552 3.436504
RightLeg -4.329674 -0.000000 0.000000
RightFoot -22.243123 -25.333929 17.596935
RightToeBase 22.018916 -0.000000 -0.000000
3514
root 19.255619 35.601970 -25.206585 -171.603114 -5.268027 -179.119051
Spine -15.134640 -1.988945 -0.736501
Head 9.624531 -3.775826 3.146839
LeftShoulder -12.687903 -28.460080 21.491767
LeftArm 4.169370 2.134689 -5.295367
LeftForeArm 10.847750 -0.000000 -1.552907
LeftHand -4.661486 -0.000000 -11.791720
LeftHandThumb1 -26.253704 0.000000 33.147579
RightShoulder -10.939564 -10.156240 -9.013772
RightArm 4.197239 49.242551 15.471348
RightForeArm -32.328907 -0.000000 8.425013
RightHand -8.247604 -0.000000 1.152571
RightHandThumb1 -24.326973 -0.000000 -32.862282
LeftUpLeg 1.135489 7.096600 1.285745
LeftLeg -5.980540 -0.000000 0.000000
LeftFoot -20.847544 25.299706 -15.527154
LeftToeBase 24.826031 -0.000000 -0.000000
RightUpLeg 1.050936 -13.022582 3.402102
RightLeg -4.299304 -0.000000 0.000000
RightFoot -22.262666 -25.348491 17.572002
RightToeBase 22.016590 -0.000000 -0.000000
3515
root 19.255727 35.600722 -25.207503 -171.696344 -5.268159 -179.120159
Spine -14.978331 -1.946725 -0.746488
Head 9.587124 -3.842469 3.137225
LeftShoulder -12.654692 -28.464855 21.476491
LeftArm 4.167736 2.075751 -5.296952
LeftForeArm 10.869046 -0.000000 -1.584031
LeftHand -4.682813 -0.000000 -11.873342
LeftHandThumb1 -26.253704 0.000000 33.147579
RightShoulder -10.924187 -10.191741 -9.035085
RightArm 4.161121 49.348085 15.448709
RightForeArm -32.190403 -0.000000 8.299835
RightHand -8.196564 -0.000000 1.331989
RightHandThumb1 -24.326973 -0.000000 -32.862282
LeftUpLeg 1.208799 7.120037 1.293772
LeftLeg -5.936089 -0.000000 0.000000
LeftFoot -20.871926 25.294169 -15.491289
LeftToeBase 24.706401 -0.000000 -0.000000
RightUpLeg 1.135005 -13.027062 3.381692
RightLeg -4.279716 -0.000000 0.000000
RightFoot -22.266913 -25.336809 17.528190
RightToeBase 22.193612 -0.000000 -0.000000
3516
root 19.255564 35.600080 -25.207693 -171.746530 -5.268669 -179.123557
Spine -14.889589 -1.906466 -0.753285
Head 9.583378 -3.935421 3.106043
LeftShoulder -12.621751 -28.480859 21.453617
LeftArm 4.161069 2.021470 -5.284855
LeftForeArm 10.887300 0.000000 -1.574629
LeftHand -4.707810 -0.000000 -11.942516
LeftHandThumb1 -26.253704 0.000000 33.147579
RightShoulder -10.886560 -10.138276 -9.103248
RightArm 4.035762 49.338821 15.391495
RightForeArm -32.054800 -0.000000 8.213323
RightHand -8.166535 0.000000 1.524979
RightHandThumb1 -24.326973 -0.000000 -32.862282
LeftUpLeg 1.251132 7.121733 1.296346
LeftLeg -5.918904 -0.000000 0.000000
LeftFoot -20.889912 25.292922 -15.483718
LeftToeBase 24.713369 -0.000000 -0.000000
RightUpLeg 1.176757 -13.028074 3.367066
RightLeg -4.257821 -0.000000 0.000000
RightFoot -22.285787 -25.391121 17.501982
RightToeBase 22.025516 -0.000000 -0.000000
3517
root 19.255631 35.600164 -25.206916 -171.756696 -5.270600 -179.121468
Spine -14.860529 -1.873750 -0.749521
Head 9.618823 -4.009618 3.068347
LeftShoulder -12.606543 -28.489819 21.431132
LeftArm 4.172991 1.968716 -5.268011
LeftForeArm 10.877113 -0.000000 -1.553674
LeftHand -4.734762 -0.000000 -11.974203
LeftHandThumb1 -26.253704 0.000000 33.147579
RightShoulder -10.905975 -10.169100 -9.120113
RightArm 4.099717 49.433423 15.406268
RightForeArm -31.995565 -0.000000 8.067313
RightHand -8.112533 -0.000000 1.657967
RightHandThumb1 -24.326973 -0.000000 -32.862282
LeftUpLeg 1.255488 7.130700 1.297621
LeftLeg -5.911614 -0.000000 0.000000
LeftFoot -20.888844 25.296240 -15.468829
LeftToeBase 24.767131 -0.000000 -0.000000
RightUpLeg 1.177048 -13.060799 3.370160
RightLeg -4.242477 -0.000000 0.000000
RightFoot -22.288788 -25.357496 17.513881
RightToeBase 22.037369 -0.000000 -0.000000
